<svg width="1444" height="489" viewBox="0 0 1444 489" fill="none" xmlns="http://www.w3.org/2000/svg">
<path d="M969.094 70.7375C969.094 70.7375 968.999 70.8009 968.936 70.8326C968.999 70.8009 969.031 70.7692 969.094 70.7375Z" fill="#5CAD34"/>
<path d="M969.094 70.7375C973.085 70.9277 977.045 71.1178 981.353 71.3397C977.045 71.1178 973.054 70.9277 969.094 70.7375Z" fill="#5CAD34"/>
<path d="M737.291 416.122C719.933 416.122 702.606 416.122 684.646 416.122V411.146C684.646 356.255 684.646 301.363 684.646 246.472C684.646 240.958 684.52 240.831 679.198 240.831C672.99 240.831 666.781 241.053 660.573 240.736C656.677 240.546 655.663 241.877 655.695 245.68C655.822 296.007 655.79 346.335 655.79 396.662C655.79 410.48 655.821 424.298 655.79 438.116C655.79 442.807 655.79 442.997 660.414 443.028C673.972 443.028 687.529 443.028 701.054 443.028C713.598 443.028 726.142 443.028 738.653 443.028C744.513 443.028 744.704 442.838 744.704 437.197C744.704 432.633 744.704 428.07 744.704 423.506C744.704 415.741 745.464 416.122 737.291 416.122Z" fill="#5CAD34"/>
<path d="M308.783 416.439C308.783 412.255 308.878 408.072 308.719 403.888C308.688 402.811 308.054 401.036 307.325 400.814C306.217 400.466 304.443 400.814 303.556 401.575C292.628 411.051 280.148 417.041 265.767 419.354C253.16 421.383 240.933 420.432 229.118 415.836C199.628 404.364 183.378 382.084 178.912 351.406C176.758 336.7 179.197 321.995 185.786 308.367C195.447 288.464 210.176 274.235 231.494 267.199C243.562 263.237 255.631 262.73 268.048 265.075C281.193 267.579 293.103 272.492 303.524 280.953C304.506 281.746 305.868 282.063 307.04 282.601C307.611 281.302 308.624 280.034 308.656 278.735C308.814 270.495 308.846 262.255 308.656 254.015C308.624 252.557 307.642 250.497 306.47 249.8C302.511 247.518 298.361 245.521 294.117 243.842C277.677 237.25 260.604 235.728 243.087 237.693C231.145 239.024 219.806 242.225 209.004 247.359C193.578 254.68 180.116 264.695 170.391 278.798C164.785 286.912 160.002 295.817 156.201 304.945C152.146 314.674 149.897 325.101 149.834 335.813C149.802 342.532 149.232 349.346 150.151 355.938C151.544 366.079 154.395 375.872 158.64 385.348C168.079 406.265 182.808 422.207 202.447 433.679C212.013 439.257 222.498 442.87 233.268 445.247C240.046 446.736 247.078 447.339 254.047 447.592C258.862 447.782 263.74 446.673 268.586 446.166C280.908 444.867 292.375 440.747 303.461 435.486C307.23 433.711 309.574 431.017 308.878 426.263C308.402 423.031 308.783 419.671 308.783 416.375V416.439Z" fill="#5CAD34"/>
<path d="M483.411 208.156C404.57 207.078 344.513 271.034 342.961 344.085C341.187 426.517 406.47 485.338 476.347 487.905C520.788 489.553 558.514 473.231 587.94 439.923C615.213 409.054 626.3 372.386 621.833 331.281C615.245 270.558 563.075 208.156 483.442 208.124L483.411 208.156ZM507.453 331.978C509.163 326.21 511.317 320.569 513.566 314.991C514.611 312.392 516.258 310.047 517.969 307.005C515.34 302.219 517.905 297.624 520.028 292.965C521.485 289.796 523.132 286.69 524.589 283.52C524.938 282.728 525.001 281.619 524.779 280.763C522.594 273.125 523.385 265.963 528.01 259.371C529.752 256.867 534.694 255.283 537.449 256.202C540.87 257.311 543.753 260.765 543.436 264.347C542.993 269.259 541.916 274.108 541.219 279.02C540.174 286.563 539.477 294.169 538.146 301.649C536.594 310.396 533.68 318.731 528.865 326.305C527.123 329.062 525.856 332.2 523.797 334.672C521.802 337.112 519.236 339.172 516.607 340.947C513.249 343.261 509.702 341.676 507.674 339.172C506.471 337.683 506.851 334.26 507.516 332.01L507.453 331.978ZM474.415 289.035C474.193 283.362 474.541 277.657 474.478 271.953C474.478 269.734 473.686 267.547 473.655 265.329C473.655 264.093 474.478 262.889 474.7 261.621C474.89 260.639 474.953 259.529 474.7 258.61C472.419 250.022 472.514 241.56 477.234 233.827C478.723 231.386 481.51 228.851 484.171 228.217C489.207 226.981 494.687 232.622 495.004 238.01C495.352 243.968 496.176 249.895 496.398 255.853C496.461 258.008 495.416 260.195 494.909 262.255C495.574 264.093 497.063 266.185 497 268.245C496.809 275.661 496.968 283.235 495.289 290.366C494.402 294.169 494.719 298.606 492.122 302.061C491.9 302.377 492.533 303.423 492.913 304.057C496.683 310.713 495.669 322.692 491.14 328.809C487.56 333.658 484.329 338.697 478.438 341.232C475.175 342.627 472.578 341.327 472.102 337.683C471.564 333.595 470.487 329.474 470.709 325.45C471.089 318.572 472.261 311.727 473.306 304.881C473.465 303.93 474.7 303.17 475.238 302.219C475.65 301.49 475.84 300.603 475.999 299.747C476.22 298.289 476.315 296.8 476.474 295.5C475.809 293.44 474.573 291.285 474.51 289.098L474.415 289.035ZM437.323 243.873C440.553 243.968 442.581 245.806 442.993 248.722C443.626 253.096 443.563 257.564 443.974 262.001C444.228 264.568 444.83 267.135 445.368 269.671C446.16 273.315 444.386 275.059 441.124 275.851C440.807 275.914 440.49 276.136 440.205 276.326C440.142 276.358 440.142 276.548 439.952 277.34C449.138 276.516 447.015 284.091 448.251 288.781C449.233 292.521 448.631 296.641 449.296 300.476C450.025 304.564 451.038 308.716 452.685 312.487C456.043 320.315 460.192 327.858 457.595 336.827C457.5 337.144 457.5 337.683 457.69 337.905C460.129 340.694 459.401 343.134 457.025 345.511C456.676 345.859 456.708 346.652 456.55 347.254C454.903 347.254 453.35 347 451.893 347.286C447.427 348.173 445.083 346.145 443.278 342.247C440.617 336.51 437.291 331.091 434.662 325.354C433.521 322.851 433.205 319.935 432.698 317.146C431.716 311.568 430.639 305.99 430.037 300.381C429.214 293.092 428.802 285.771 428.2 278.45C428.137 277.531 427.915 276.643 427.693 275.756C427.345 274.298 426.68 272.872 426.553 271.414C426.078 266.407 425.729 261.367 425.412 256.36C424.906 248.532 429.594 243.683 437.354 243.873H437.323ZM545.558 409.973C543.024 416.755 540.427 423.538 538.21 430.415C535.454 438.877 530.956 446.261 523.861 451.522C517.494 456.244 510.588 460.016 502.163 460.84C496.714 461.378 491.33 463.66 486.103 465.72C472.293 471.14 459.622 468.034 448.029 460.269C441.789 456.086 436.974 450.096 434.693 442.395C432.888 436.31 429.784 430.573 428.232 424.425C426.394 417.167 425.634 409.625 424.367 402.209C423.164 395.268 421.643 388.359 420.724 381.355C420.471 379.422 421.833 377.267 422.498 375.207C423.29 372.703 424.082 370.231 425.001 367.347C420.344 367.822 417.684 366.238 416.163 363.766C410.715 354.892 405.488 345.859 400.452 336.732C398.361 332.961 397.031 328.809 395.352 324.816C392.723 318.636 389.841 312.551 387.497 306.276C385.279 300.381 387.655 295.12 392.691 293.313C397.094 291.729 403.968 293.789 405.647 300.729C406.534 304.469 407.928 308.114 408.593 311.885C409.036 314.389 408.688 317.019 409.099 318.16C409.543 319.46 409.828 320.854 410.493 322.058C412.14 325.133 414.199 328.048 415.593 331.218C416.227 332.675 415.688 334.64 415.688 337.017C416.48 337.176 418 337.493 419.774 337.873C419.267 338.729 418.792 339.521 418.095 340.694C420.028 341.106 422.403 340.884 423.227 341.93C426.331 345.796 429.023 350.043 431.716 354.226C432.603 355.621 433.141 357.237 434.092 359.297C433.11 360.121 431.431 361.484 429.309 363.227C433.965 363.512 437.924 363.892 440.553 359.582C442.454 356.476 445.78 356.064 449.043 355.684C453.826 355.145 454.871 353.688 453.224 349.187C455.536 348.997 457.722 348.839 459.939 348.68C460.161 346.145 462.536 344.402 465.229 346.05C469.473 348.648 473.813 349.187 478.501 348.902C478.628 348.902 478.786 348.902 478.881 348.934C485.47 354.385 490.126 348.965 495.099 345.923C501.434 342.025 505.584 341.961 511.032 345.733C515.466 348.807 516.385 353.529 515.91 358.093C515.498 362.213 512.647 365.414 507.991 366.364C506.439 366.681 505.077 368.012 503.778 369.534C506.597 369.534 509.416 369.439 512.236 369.534C516.734 369.724 517.525 370.896 516.195 375.175C514.96 379.137 513.629 383.066 512.204 387.44C509.448 386.236 507.706 385.475 505.964 384.683C500.864 382.401 495.923 382.274 491.076 385.538C489.239 386.774 487.117 387.63 485.09 388.549C480.402 390.736 479.039 395.141 481.89 399.42C492.47 415.234 493.103 412.857 505.679 405.948C510.272 403.413 514.865 400.656 519.774 398.944C526.87 396.504 534.314 396.472 541.441 399.261C545.812 400.973 547.269 405.473 545.622 409.942L545.558 409.973ZM580.877 345.891C579.927 350.613 576.347 353.846 574.13 357.839C572.008 361.642 570.265 365.699 567.985 369.407C563.455 376.76 558.609 383.89 553.952 391.18C552.622 393.24 551.355 395.395 550.246 397.582C548.884 400.244 547.237 400.466 545.083 398.247C542.264 395.331 541.441 391.845 541.029 387.852C540.237 380.024 543.404 373.432 546.319 366.681C547.966 362.847 551.482 364.653 554.523 363.956C551.26 360.311 551.387 357.871 554.143 354.512C558.45 349.251 562.315 343.609 566.718 338.412C568.365 336.479 570.804 334.292 573.116 333.975C582.017 332.675 582.619 337.144 580.877 345.955V345.891Z" fill="#5CAD34"/>
<path d="M1200.58 338.919C1193.1 339.077 1185.63 338.951 1178.15 338.951C1161.05 338.951 1143.98 339.014 1126.87 338.887C1123.83 338.887 1122.47 339.711 1122.56 342.944C1122.72 349.282 1122.66 355.621 1122.59 361.959C1122.59 364.336 1123.13 365.857 1125.98 365.731C1129.66 365.572 1133.33 365.699 1137.01 365.699C1149.01 365.699 1161.05 365.699 1174.51 365.699C1172.1 372.703 1170.77 379.263 1167.76 384.905C1159.94 399.483 1148 409.751 1132.6 415.963C1120.95 420.685 1109.04 421.699 1096.75 418.879C1085.69 416.312 1075.97 411.368 1067.1 404.205C1056.58 395.712 1048.41 385.443 1042.9 373.305C1037.89 362.181 1035.74 350.36 1036.44 337.905C1036.91 329.094 1038.4 320.632 1041.5 312.456C1048.16 294.993 1059.88 281.746 1076.19 272.84C1092.12 264.156 1109.16 261.463 1127.09 265.139C1140.74 267.959 1152.88 273.823 1163.04 283.394C1166.62 286.753 1169.79 290.524 1173.09 294.137C1174.35 295.532 1175.46 296.197 1177.14 294.549C1182.4 289.384 1187.75 284.313 1193.14 279.274C1194.69 277.816 1195.26 276.675 1193.48 274.9C1188.77 270.21 1184.52 264.98 1179.45 260.702C1171.57 254.047 1162.63 248.976 1153.04 245.046C1142.65 240.767 1131.84 237.788 1120.73 237.218C1111.76 236.774 1102.67 237.566 1093.71 238.644C1079.23 240.419 1065.99 246.123 1054.05 254.3C1040.46 263.618 1029.56 275.471 1021.07 289.859C1011.48 306.149 1007.93 323.833 1007.11 342.247C1006.82 348.617 1008.25 355.114 1009.26 361.516C1012.58 382.718 1022.91 400.466 1037.29 415.868C1043.85 422.872 1051.61 428.608 1059.97 433.679C1078.53 444.962 1098.71 448.765 1119.9 446.768C1136.37 445.215 1151.51 439.479 1165.33 429.908C1178.09 421.066 1187.72 409.688 1194.47 396.06C1202.61 379.612 1205.65 361.864 1205.33 343.483C1205.27 339.965 1203.91 338.855 1200.55 338.919H1200.58Z" fill="#5CAD34"/>
<path d="M1367 267.611C1391.05 267.611 1415.12 267.547 1439.16 267.674C1442.8 267.674 1444.07 266.407 1443.94 262.889C1443.79 257.057 1443.66 251.226 1443.98 245.394C1444.17 241.591 1442.74 240.767 1439.19 240.767C1405.4 240.894 1371.6 240.831 1337.77 240.831H1333.55V299.208C1333.55 345.479 1333.55 391.718 1333.55 437.989C1333.55 440.873 1333.49 443.092 1337.55 443.092C1371.72 442.965 1405.9 443.028 1440.11 443.06C1442.87 443.06 1443.98 441.951 1443.94 439.225C1443.85 433.14 1443.94 427.055 1443.94 420.971C1443.94 416.153 1443.94 416.153 1439 416.122C1415.09 416.122 1391.14 416.122 1367.23 416.122H1362.66V345.669H1367.19C1390.22 345.669 1413.28 345.669 1436.31 345.669C1441.09 345.669 1441.63 345.131 1441.63 340.155C1441.63 334.831 1441.63 329.506 1441.63 324.182C1441.63 318.953 1441.44 318.762 1436.44 318.762C1413.41 318.762 1390.35 318.762 1367.32 318.762H1362.73V267.579H1367.04L1367 267.611Z" fill="#5CAD34"/>
<path d="M106.407 240.799C72.6086 240.894 38.7789 240.926 4.98095 240.799C1.02149 240.799 0.134569 242.098 0.166245 245.838C0.292948 274.108 0.229596 302.346 0.229596 330.615C0.229596 366.111 0.229596 401.575 0.229596 437.07C0.229596 441.064 2.15126 443.06 5.99457 443.06C11.9496 443.06 17.9046 443.06 23.8597 443.06C51.1958 443.06 78.5636 443.06 105.9 443.06C110.461 443.06 110.904 442.616 110.904 438.116C110.904 432.538 110.904 426.96 110.904 421.383C110.904 416.597 110.493 416.185 105.71 416.185C81.7945 416.185 57.8477 416.185 33.9325 416.185H29.6246V345.733H33.9642C56.9925 345.733 80.0524 345.733 103.081 345.733C107.832 345.733 108.37 345.226 108.37 340.599C108.37 335.147 108.37 329.696 108.37 324.245C108.37 319.016 108.18 318.826 103.049 318.826C80.1474 318.826 57.2142 318.826 34.3126 318.826H29.593V267.643H34.2493C58.1645 267.643 82.1113 267.611 106.026 267.674C109.542 267.674 111.095 266.597 110.936 262.857C110.714 257.026 110.714 251.194 110.936 245.363C111.063 241.845 109.859 240.767 106.343 240.799H106.407Z" fill="#5CAD34"/>
<path d="M1272.83 240.799C1266.37 240.958 1259.91 240.831 1253.48 240.862C1250.16 240.862 1248.51 242.553 1248.51 245.933C1248.51 309.92 1248.51 373.876 1248.51 437.863C1248.51 439.384 1248.73 440.873 1248.85 442.395L1249.46 442.87C1257.56 442.933 1265.64 442.997 1273.75 443.06C1276.48 443.06 1277.43 441.697 1277.43 439.004C1277.39 374.383 1277.39 309.793 1277.43 245.173C1277.43 241.845 1276.06 240.767 1272.86 240.831L1272.83 240.799Z" fill="#5CAD34"/>
<path d="M72.6086 107.184C71.785 107.184 70.6447 107.881 70.2329 108.61C68.5858 111.336 67.192 114.22 65.4499 117.452H105.361C105.488 141.538 86.4192 163.058 58.893 164.198C31.8419 165.339 9.00376 141.063 11.6012 112.128C12.8682 98.1198 18.8232 86.0766 30.4165 77.7732C49.0418 64.4624 68.1423 66.4907 86.9893 77.8366C88.6998 74.5089 90.1886 71.6249 91.7407 68.5824C73.5272 55.1131 41.8515 53.4017 20.6287 71.7833C1.36992 88.4536 -5.44035 114.632 4.63252 139.13C9.76398 151.585 18.2531 161.41 30.2582 167.716C49.2002 177.731 68.364 176.654 87.5595 167.431C87.5595 168.382 87.7179 168.857 87.5595 169.047C80.9393 175.925 74.129 182.707 65.6399 187.271C53.0963 194.021 39.7292 198.078 25.2851 197.666C24.4932 197.666 23.2578 198.078 22.9094 198.68C21.2623 201.405 19.8685 204.258 18.3798 207.11C31.1134 210.628 62.1239 206.381 84.9938 186.383C108.782 165.593 119.108 139.098 116.036 107.12C101.465 107.12 87.0527 107.12 72.6402 107.184H72.6086Z" fill="#5CAD34"/>
<path d="M826.332 172.851C840.934 176.749 854.903 175.006 867.764 167.399C873.782 163.85 878.755 158.557 884.108 154.12V171.963H894.815V60.9445H884.045V78.4705L883.158 78.7874C881.352 76.7274 879.705 74.4772 877.71 72.6074C866.18 61.9587 852.401 57.395 836.88 58.4091C822.024 59.3599 809.132 64.5258 799.249 76.5055C790.158 87.5345 786.515 100.37 786.072 114.029C785.819 121.445 787.402 129.178 789.525 136.373C795.1 155.008 807.041 167.716 826.3 172.851H826.332ZM807.58 85.5379C818.159 71.0227 832.984 66.3639 850.152 69.6917C867.605 73.0827 878.533 84.1434 883 101.131C886.706 115.17 885.027 129.02 878.343 141.919C870.646 156.719 858.039 163.913 841.409 164.23C824.273 164.008 811.507 156.244 803.715 141.19C793.832 122.048 794.719 103.127 807.548 85.5379H807.58Z" fill="#5CAD34"/>
<path d="M516.227 159.064C526.426 169.903 539.445 174.689 554.238 174.657C565.609 174.625 576.252 171.931 585.818 165.498C593.832 160.11 599.882 153.074 604.348 144.296C601.118 142.426 598.203 140.746 595.289 139.066C578.564 167.621 552.685 167.621 535.929 160.015C516.987 151.426 509.987 130.541 511.982 117.516H608.403C607.706 112.16 607.358 107.374 606.439 102.683C600.041 70.072 572.8 53.2433 541.947 59.6451C530.417 62.0538 520.883 67.695 513.534 77.1711C508.878 83.1292 505.394 89.5628 503.145 96.7253C500.072 106.55 499.375 116.438 500.959 126.706C502.86 139.13 507.706 150.032 516.195 159.064H516.227ZM549.518 69.0895C574.257 67.2513 596.335 85.4428 596.493 106.899H511.95C511.887 91.2425 527.693 70.7058 549.518 69.0895Z" fill="#5CAD34"/>
<path d="M178.659 158.367C186.926 167.526 197.474 172.946 209.448 174.372C220.407 175.671 231.335 174.562 241.662 169.459C252.938 163.913 261.174 155.61 267.287 144.422C264.215 142.616 261.301 140.936 257.943 138.94C251.861 149.176 244.259 157.194 233.299 161.41C221.896 165.815 210.651 164.927 199.533 160.3C181.573 152.821 172.894 132.189 174.636 117.262H270.645C270.645 115.36 270.677 113.998 270.645 112.603C270.075 97.8662 265.324 84.6505 255.187 73.8434C243.942 61.8319 229.593 57.4584 213.439 58.3141C196.904 59.2331 183.695 66.6175 174.256 80.0234C165.83 92.0031 162.314 105.567 163.391 120.431C164.436 134.82 168.998 147.56 178.659 158.335V158.367ZM214.737 68.931C238.811 68.931 259.337 86.2985 259.368 106.867H174.826C174.794 88.3268 195.289 68.9627 214.737 68.931Z" fill="#5CAD34"/>
<path d="M1230.55 58.2507C1199.95 58.1239 1172.45 81.2911 1172.17 116.026C1171.88 150.412 1198.14 173.421 1225.79 174.372C1263.42 175.639 1288.13 151.712 1288.13 116.533C1290.79 88.9606 1266.75 58.3774 1230.55 58.2507ZM1229.75 164.135C1204.06 164.135 1183.35 142.965 1183.25 116.66C1183.13 92.7004 1202.39 66.5858 1233.52 68.8043C1255.73 70.3889 1277.62 88.3585 1277.62 116.375C1277.62 143.408 1256.9 164.103 1229.79 164.135H1229.75Z" fill="#5CAD34"/>
<path d="M1374 167.59C1374 149.588 1373.62 131.587 1374.16 113.617C1374.42 105.377 1375.78 96.9788 1378 89.024C1380.91 78.6289 1387.85 71.2446 1398.97 69.4064C1404 68.5824 1409.35 68.7092 1414.42 69.4698C1422.6 70.6741 1428.39 75.5548 1430.45 83.668C1431.84 89.1191 1432.67 94.8554 1432.73 100.497C1432.98 122.935 1432.83 145.341 1432.86 167.78C1432.86 169.238 1433.02 170.664 1433.08 172.027H1443.88V167.621C1443.88 146.197 1443.91 124.805 1443.85 103.381C1443.85 98.9438 1443.6 94.5068 1443.09 90.1333C1440.87 70.8643 1431.69 60.8495 1413.63 58.631C1397.63 56.6978 1384.49 61.8319 1375.46 75.8083C1375.18 76.252 1374.76 76.6006 1373.81 77.6465V60.9128H1363.17V171.995H1374V167.59Z" fill="#5CAD34"/>
<path d="M356.169 167.653C356.169 150.412 355.884 133.172 356.296 115.931C356.486 108.135 357.278 100.211 359.02 92.637C361.744 80.8157 368.333 71.6566 381.162 69.4381C386.293 68.5507 391.805 68.7409 396.999 69.5332C405.045 70.7375 410.557 75.7132 412.679 83.668C413.914 88.2634 414.865 93.1124 414.928 97.8345C415.181 121.033 415.118 144.232 415.15 167.431C415.15 168.921 415.15 170.378 415.15 171.963H426.299C426.299 160.047 426.458 148.384 426.268 136.753C425.951 120.304 425.951 103.856 424.684 87.4711C423.892 77.1394 419.457 67.695 409.511 62.8144C404.823 60.5325 399.28 59.9621 394.054 58.8845C386.388 57.2682 379.166 58.9162 372.197 62.1489C365.45 65.2864 360.731 70.579 356.708 76.664C356.359 76.5689 356.043 76.4421 355.694 76.3471V60.7544H345.431V171.995H356.169V167.653Z" fill="#5CAD34"/>
<path d="M1011.7 60.5959H992.312V21.1705H981.194V60.8811H969.126V70.7375C973.117 70.9276 977.076 71.1178 981.384 71.3397V171.963H992.566V70.9593H1011.7V60.5959Z" fill="#5CAD34"/>
<path d="M693.135 167.621C693.135 147.243 692.945 126.833 693.231 106.455C693.326 99.5459 694.086 92.5419 695.606 85.7914C698.014 75.1744 705.901 65.2864 721.96 70.0086C722.626 70.1987 723.956 69.755 724.336 69.1846C726.015 66.5858 727.472 63.8602 729.087 61.0396C722.119 58.5042 715.594 57.2999 708.498 59.6451C701.181 62.0538 697.063 67.4098 693.104 74.7941V60.8178H682.461V172.122H693.167V167.621H693.135Z" fill="#5CAD34"/>
<path d="M1083.19 172.058H1093.48V60.7861H1083.19V172.058Z" fill="#5CAD34"/>
<path d="M212.33 37.5872C214.737 34.4814 217.398 31.5973 219.932 28.6183C226.711 20.6952 233.458 12.7404 240.458 4.56371C236.15 3.23263 232.317 2.02832 228.485 0.792311C226.457 0.12677 225.064 0.443694 223.733 2.44032C216.385 13.3425 208.877 24.1179 201.085 35.4638C203.619 36.6047 205.868 37.4288 207.927 38.5697C209.859 39.6472 211.031 39.2986 212.362 37.5555L212.33 37.5872Z" fill="#5CAD34"/>
<path d="M549.803 37.1118C554.586 31.2487 559.654 25.5758 564.564 19.8078C568.777 14.8637 572.958 9.85635 577.361 4.5954C572.071 2.9474 567.32 1.48954 562.473 0C554.364 11.8213 546.35 23.4524 538.146 35.4321C540.364 36.478 542.454 37.3337 544.418 38.4429C546.73 39.7423 548.156 39.1718 549.803 37.1435V37.1118Z" fill="#5CAD34"/>
<path d="M1088 33.9109C1094.69 33.3404 1098.24 29.3472 1098.3 23.6742C1098.36 18.033 1094.24 14.1348 1088.51 14.1982C1082.24 14.2933 1078.41 17.9062 1078.41 23.7376C1078.41 29.062 1083.13 34.3229 1088 33.9109Z" fill="#5CAD34"/>
<path d="M969.094 70.7375C969.094 70.7375 968.999 70.8009 968.936 70.8326C968.999 70.8326 969.063 70.8326 969.094 70.8326V70.7375Z" fill="#5CAD34"/>
<path d="M878.755 237.123C842.93 235.285 812.775 247.803 789.683 275.566C774.89 293.377 766.94 314.357 766.211 337.398C764.216 400.782 812.426 447.18 871.881 447.148C934.599 447.117 979.104 396.314 977.33 342.025C978.28 282.918 930.006 239.753 878.755 237.123ZM872.04 419.735C831.4 419.703 796.747 387.979 795.29 345.574C793.452 292.553 832.255 266.502 864.659 264.347C888.416 262.762 909.766 268.752 926.807 286.278C941.726 301.617 948.853 320.157 948.505 343.197C950.311 380.404 917.209 419.798 872.008 419.766L872.04 419.735Z" fill="#5CAD34"/>
</svg>
